<?xml version="1.0" encoding="UTF-8"?><svg id="Calque_1" xmlns="http://www.w3.org/2000/svg" viewBox="0 0 157 72"><defs><style>.cls-1{fill:#231f20;stroke-width:0px;}</style></defs><polygon class="cls-1" points="2.08 23.29 .5 15.52 17.73 15.52 17.73 17.96 3.48 17.96 4.47 22.81 2.08 23.29"/><polygon class="cls-1" points="52.82 48.63 54.4 56.41 37.17 56.41 37.17 53.97 51.42 53.97 50.43 49.12 52.82 48.63"/><path class="cls-1" d="M9.57,35.87v-12.11h5.29c2.44,0,3.92,1.16,3.92,2.99,0,1.14-.64,2.01-1.78,2.44,1.49.52,2.33,1.63,2.33,3.11,0,2.15-1.68,3.56-4.42,3.56h-5.34ZM14.52,25.73h-2.45v2.96h2.45c1.23,0,1.87-.56,1.87-1.49s-.65-1.47-1.87-1.47ZM14.6,30.41h-2.53v3.49h2.53c1.34,0,2.16-.65,2.16-1.74s-.82-1.74-2.16-1.74ZM22.06,22.66c.81,0,1.44.57,1.44,1.4s-.62,1.4-1.44,1.4-1.44-.57-1.44-1.4.62-1.4,1.44-1.4ZM20.85,26.52h2.43v9.35h-2.43v-9.35ZM34.42,31.08c0,.28-.02.54-.03.71h-7.13c.17,1.59,1.13,2.43,2.44,2.43,1.14,0,1.85-.54,2.22-1.39l2.22.68c-.59,1.59-2.22,2.62-4.38,2.62-2.89,0-4.95-1.99-4.95-4.91s2.13-4.91,4.9-4.91,4.73,1.98,4.73,4.77ZM29.68,28.14c-1.18,0-2.1.73-2.37,2.13h4.64c-.21-1.35-1.02-2.13-2.27-2.13ZM38.27,28.5h.18c.47-1.37,1.62-2.2,3.09-2.2,1.94,0,3.34,1.4,3.34,3.88v5.69h-2.43v-5.11c0-1.53-.84-2.36-2.03-2.36s-2.05.83-2.05,2.36v5.11h-2.43v-9.35h2.42l-.09,1.97Z"/><path class="cls-1" d="M6.84,34.95c.81,0,1.44.57,1.44,1.4s-.62,1.4-1.44,1.4-1.44-.57-1.44-1.4.62-1.4,1.44-1.4ZM5.63,48.58v-9.76h2.43v9.9c0,1.79-1,2.81-2.81,2.81-.55,0-1.03-.09-1.46-.26v-2.03c.32.17.63.26.97.26.58,0,.87-.28.87-.92ZM14.45,48.42c-2.77,0-4.88-2.01-4.88-4.91s2.11-4.91,4.88-4.91,4.88,2.01,4.88,4.91-2.11,4.91-4.88,4.91ZM14.45,46.36c1.4,0,2.42-1.06,2.42-2.84s-1.02-2.84-2.42-2.84-2.42,1.06-2.42,2.84,1.02,2.84,2.42,2.84ZM40.96,43.37c0,.28-.02.54-.03.71h-7.13c.17,1.6,1.13,2.43,2.44,2.43,1.14,0,1.85-.54,2.22-1.39l2.22.68c-.59,1.6-2.22,2.62-4.38,2.62-2.89,0-4.95-1.99-4.95-4.91s2.13-4.91,4.9-4.91,4.73,1.98,4.73,4.77ZM36.22,40.44c-1.18,0-2.1.73-2.37,2.13h4.64c-.21-1.35-1.02-2.13-2.27-2.13ZM47.82,38.62h.08v2.5h-.54c-1.69,0-2.48.81-2.48,2.44v4.6h-2.43v-9.35h2.49s-.09,2.44-.09,2.44h.11c.42-1.77,1.33-2.63,2.88-2.63ZM29.86,45.73c0,.9.16,1.64.48,2.44h-2.55c-.22-.64-.29-1.28-.29-1.97h-.21c-.47,1.37-1.62,2.2-3.09,2.2-1.94,0-3.34-1.4-3.34-3.88v-5.69h2.43v5.11c0,1.53.84,2.36,2.03,2.36s2.05-.83,2.05-2.36v-5.11h2.5v6.91Z"/><path class="cls-1" d="M71.84,26.16h3.66c1.99,0,3.23,1.11,3.23,2.86s-1.25,2.85-3.23,2.85h-2.09v2.77h-1.56v-8.47ZM73.4,27.48v3.06h1.92c1.11,0,1.79-.57,1.79-1.53s-.68-1.54-1.79-1.54h-1.92Z"/><path class="cls-1" d="M79.25,31.36c0-2,1.45-3.43,3.38-3.43s3.38,1.43,3.38,3.43-1.45,3.43-3.38,3.43-3.38-1.43-3.38-3.43ZM84.48,31.36c0-1.32-.79-2.12-1.85-2.12s-1.85.8-1.85,2.12.79,2.12,1.85,2.12,1.85-.8,1.85-2.12Z"/><path class="cls-1" d="M93.52,34.63h-1.55c-.17-.46-.23-.9-.23-1.37h-.12c-.34.93-1.16,1.53-2.19,1.53-1.37,0-2.37-1-2.37-2.74v-3.96h1.5v3.6c0,1.14.65,1.76,1.56,1.76s1.56-.62,1.56-1.76v-3.6h1.5v4.83c0,.62.11,1.15.34,1.71Z"/><path class="cls-1" d="M98.32,27.94v1.54h-.25c-1.32,0-1.9.59-1.9,1.78v3.38h-1.5v-6.54h1.5l-.06,1.59h.12c.3-1.15.87-1.74,1.91-1.74h.18Z"/><path class="cls-1" d="M104.21,27.94c1.07,0,1.92.59,2.29,1.68h.12l-.06-1.53h1.5v8.72h-1.5v-2.18l.06-1.53h-.12c-.36,1.09-1.22,1.68-2.29,1.68-1.57,0-2.72-1.38-2.72-3.43s1.15-3.43,2.72-3.43ZM104.81,29.24c-1.03,0-1.8.81-1.8,2.12s.77,2.12,1.8,2.12,1.82-.81,1.82-2.12-.77-2.12-1.82-2.12Z"/><path class="cls-1" d="M115.95,34.63h-1.55c-.17-.46-.23-.9-.23-1.37h-.12c-.34.93-1.16,1.53-2.19,1.53-1.37,0-2.37-1-2.37-2.74v-3.96h1.5v3.6c0,1.14.65,1.76,1.56,1.76s1.56-.62,1.56-1.76v-3.6h1.5v4.83c0,.62.11,1.15.34,1.71Z"/><path class="cls-1" d="M123.33,31.75h-5.08c.12,1.16.85,1.82,1.85,1.82.85,0,1.39-.4,1.67-1.03l1.37.47c-.44,1.08-1.56,1.78-3,1.78-2.02,0-3.43-1.4-3.43-3.43s1.48-3.43,3.39-3.43,3.26,1.39,3.26,3.3c0,.19-.01.39-.02.51ZM118.28,30.72h3.54c-.14-.97-.77-1.59-1.73-1.59-.9,0-1.6.57-1.8,1.59Z"/><path class="cls-1" d="M128.44,34.63h-1.5v-8.72h1.5v8.72Z"/><path class="cls-1" d="M136.15,31.75h-5.08c.12,1.16.85,1.82,1.85,1.82.85,0,1.39-.4,1.67-1.03l1.37.47c-.44,1.08-1.56,1.78-3,1.78-2.02,0-3.43-1.4-3.43-3.43s1.48-3.43,3.39-3.43,3.26,1.39,3.26,3.3c0,.19-.01.39-.02.51ZM131.1,30.72h3.54c-.14-.97-.77-1.59-1.73-1.59-.9,0-1.6.57-1.8,1.59Z"/><path class="cls-1" d="M139.75,28.09h1.5v7c0,1.2-.7,1.88-1.89,1.88-.35,0-.69-.07-.98-.21v-1.28c.25.13.48.21.74.21.41,0,.63-.21.63-.67v-6.92ZM141.41,26.41c0,.52-.4.88-.91.88s-.91-.36-.91-.88.4-.88.91-.88.91.35.91.88Z"/><path class="cls-1" d="M148.96,31.75h-5.08c.12,1.16.85,1.82,1.85,1.82.85,0,1.39-.4,1.67-1.03l1.37.47c-.44,1.08-1.56,1.78-3,1.78-2.02,0-3.43-1.4-3.43-3.43s1.48-3.43,3.39-3.43,3.26,1.39,3.26,3.3c0,.19-.01.39-.02.51ZM143.91,30.72h3.54c-.14-.97-.77-1.59-1.73-1.59-.9,0-1.6.57-1.8,1.59Z"/><path class="cls-1" d="M156.5,34.63h-1.55c-.17-.46-.23-.9-.23-1.37h-.12c-.34.93-1.16,1.53-2.19,1.53-1.37,0-2.37-1-2.37-2.74v-3.96h1.5v3.6c0,1.14.65,1.76,1.56,1.76s1.56-.62,1.56-1.76v-3.6h1.5v4.83c0,.62.11,1.15.34,1.71Z"/><path class="cls-1" d="M75.5,39.28v1.54h-.25c-1.32,0-1.9.59-1.9,1.78v3.38h-1.5v-6.54h1.5l-.06,1.59h.12c.3-1.15.87-1.74,1.91-1.74h.18Z"/><path class="cls-1" d="M82.61,43.1h-5.08c.12,1.16.85,1.82,1.85,1.82.85,0,1.39-.4,1.67-1.03l1.37.47c-.44,1.08-1.56,1.78-3,1.78-2.02,0-3.43-1.4-3.43-3.43s1.48-3.43,3.39-3.43,3.26,1.39,3.26,3.31c0,.19-.01.39-.02.51ZM77.56,42.07h3.54c-.15-.97-.77-1.59-1.73-1.59-.9,0-1.6.57-1.8,1.59Z"/><path class="cls-1" d="M86.08,39.28c1.42,0,2.26.73,2.47,1.78l-1.34.31c-.11-.57-.51-1.02-1.2-1.02-.65,0-.98.31-.98.7,0,1.42,3.74.6,3.74,3.15,0,1.13-.93,1.92-2.72,1.92-1.56,0-2.54-.73-2.75-1.88l1.39-.3c.15.65.59,1.09,1.43,1.09s1.17-.33,1.17-.73c0-1.48-3.7-.68-3.7-3.12,0-1.04.9-1.91,2.49-1.91Z"/><path class="cls-1" d="M101.12,43.1h-5.08c.12,1.16.85,1.82,1.85,1.82.85,0,1.39-.4,1.67-1.03l1.37.47c-.44,1.08-1.56,1.78-3,1.78-2.02,0-3.43-1.4-3.43-3.43s1.48-3.43,3.39-3.43,3.26,1.39,3.26,3.31c0,.19-.01.39-.02.51ZM96.07,42.07h3.54c-.15-.97-.77-1.59-1.73-1.59-.9,0-1.6.57-1.8,1.59Z"/><path class="cls-1" d="M111.15,45.98h-1.55c-.17-.46-.23-.9-.23-1.37h-.12c-.34.93-1.16,1.53-2.19,1.53-1.37,0-2.37-1-2.37-2.74v-3.96h1.5v3.6c0,1.14.65,1.76,1.56,1.76s1.56-.62,1.56-1.76v-3.6h1.5v4.83c0,.62.11,1.15.34,1.71Z"/><path class="cls-1" d="M113.85,40.81c.35-.93,1.17-1.53,2.2-1.53,1.36,0,2.36,1.01,2.36,2.74v3.96h-1.5v-3.6c0-1.14-.64-1.75-1.56-1.75s-1.56.62-1.56,1.75v3.6h-1.5v-6.54h1.5l-.06,1.37h.12Z"/><path class="cls-1" d="M122.33,39.44h1.5v7c0,1.2-.7,1.88-1.89,1.88-.35,0-.69-.07-.98-.21v-1.28c.25.13.48.21.74.21.41,0,.63-.21.63-.67v-6.93ZM123.99,37.76c0,.52-.4.88-.91.88s-.91-.36-.91-.88.4-.88.91-.88.91.35.91.88Z"/><path class="cls-1" d="M131.54,43.1h-5.08c.12,1.16.85,1.82,1.85,1.82.85,0,1.39-.4,1.67-1.03l1.37.47c-.44,1.08-1.56,1.78-3,1.78-2.02,0-3.43-1.4-3.43-3.43s1.48-3.43,3.39-3.43,3.26,1.39,3.26,3.31c0,.19-.01.39-.02.51ZM126.5,42.07h3.54c-.14-.97-.77-1.59-1.73-1.59-.9,0-1.6.57-1.8,1.59Z"/><path class="cls-1" d="M139.08,45.98h-1.55c-.17-.46-.23-.9-.23-1.37h-.12c-.34.93-1.16,1.53-2.19,1.53-1.37,0-2.37-1-2.37-2.74v-3.96h1.5v3.6c0,1.14.65,1.76,1.56,1.76s1.56-.62,1.56-1.76v-3.6h1.5v4.83c0,.62.11,1.15.34,1.71Z"/><path class="cls-1" d="M92.77,44.84c.34,0,.68-.11,1-.28v1.3c-.4.17-.9.25-1.27.25-1.45,0-2.26-.77-2.26-2.3v-3.22h-1.25v-1.17h1.25v-1.14l1.38-.68h.12v1.82h2.03v1.17h-2.03v3.1c0,.86.39,1.15,1.03,1.15Z"/></svg>