<?xml version="1.0" encoding="utf-8"?>
<!-- Generator: Adobe Illustrator 26.0.3, SVG Export Plug-In . SVG Version: 6.00 Build 0)  -->
<svg version="1.1"
	 id="_x3C_Calque_x3E_" xmlns:cc="http://creativecommons.org/ns#" xmlns:dc="http://purl.org/dc/elements/1.1/" xmlns:osb="http://www.openswatchbook.org/uri/2009/osb" xmlns:rdf="http://www.w3.org/1999/02/22-rdf-syntax-ns#" xmlns:svg="http://www.w3.org/2000/svg"
	 xmlns="http://www.w3.org/2000/svg" xmlns:xlink="http://www.w3.org/1999/xlink" x="0px" y="0px" viewBox="0 0 86.3 24.8"
	 style="enable-background:new 0 0 86.3 24.8;" xml:space="preserve">
<style type="text/css">
	.st0{fill:#FCFCFC;}
</style>
<g>
	<g>
		<path class="st0" d="M19.4,4.5c0.1,0.2,0.1,0.4,0.2,0.6c0,0.1,0.1,0.1,0.1,0c0.9-0.7,1.9-1,3.1-0.8c0,0,0.1,0,0-0.1
			c-0.4-0.4-0.8-0.8-1.2-1.2C20.5,2.3,19,3.4,19.4,4.5z M18.5,2.8C18.5,2.8,18.5,2.8,18.5,2.8c0.3-0.4,0.7-0.8,1.2-0.9
			c0,0,0-0.1,0-0.1c-0.3-0.2-0.7-0.4-1-0.5C18,1,17.6,1.7,18,2.2C18.2,2.4,18.3,2.6,18.5,2.8z M20.4,6.2c-0.5,0.2-0.8,0.6-0.9,1.1
			c0,0.3-0.1,0.5-0.2,0.9c0,0.1,0,0.1,0.1,0.1c2.1-0.9,4.3-0.5,5.9,1c0,0,0.1,0,0.1-0.1c-0.4-1.2-0.8-2.6-1.6-2.9
			C22.7,5.7,21.5,5.7,20.4,6.2z M22.8,9.9c-1.6-0.8-3.8-0.7-4.6,0.2c-0.2,0.3-0.5,0.6-0.8,0.8c0,0,0,0.1,0,0.1
			c1.6-0.2,3.3,0.2,4.7,1.2c1.7,1.3,2.5,3.4,2.2,5.5c0,0.1,0.1,0.1,0.1,0c0.6-1.1,0.9-2.1,1.1-3.3C26,12.6,24.7,10.8,22.8,9.9z
			 M14.4,0.3c0.8,0.1,1.6,0.4,2.3,0.8c0,0,0.1,0,0.1,0c0-0.1,0.1-0.3,0.2-0.4c0,0,0-0.1,0-0.1c-0.8-0.2-1.7-0.4-2.5-0.4
			C14.4,0.2,14.4,0.2,14.4,0.3C14.4,0.3,14.4,0.3,14.4,0.3z M16.3,12.3l-1.9,0c-0.1,0-0.1,0.1,0,0.1c3,0.4,5.3,2.9,5.3,6
			c0,3-2.3,5.6-5.2,6c0,0-0.1,0-0.1,0.1c0,0,0,0.1,0.1,0.1c3.6-0.3,8.1-2.2,8.1-6.4C22.6,14.9,19.6,12.3,16.3,12.3z M6.7,18.6
			c0.5-0.2,0.8-0.6,0.9-1.1c0-0.3,0.1-0.5,0.2-0.9c0-0.1,0-0.1-0.1-0.1c-2.1,0.9-4.3,0.5-5.9-1c0,0-0.1,0-0.1,0.1
			c0.4,1.2,0.8,2.6,1.6,2.9C4.3,19,5.6,19,6.7,18.6z M9.6,13.7c-1.6,0.2-3.3-0.2-4.7-1.2c-1.7-1.3-2.5-3.4-2.2-5.5
			c0-0.1-0.1-0.1-0.1,0C2,8,1.6,9,1.4,10.2c-0.3,1.9,0.9,3.7,2.8,4.6c1.6,0.8,3.8,0.7,4.6-0.2C9,14.3,9.3,14,9.6,13.8
			C9.7,13.7,9.6,13.7,9.6,13.7z M8.6,22C8.5,21.9,8.5,21.9,8.6,22c-0.3,0.4-0.7,0.8-1.2,0.9c0,0,0,0.1,0,0.1c0.3,0.2,0.7,0.4,1,0.5
			C9,23.8,9.5,23,9.1,22.6C8.9,22.4,8.7,22.2,8.6,22z M7.7,20.2c-0.1-0.2-0.1-0.4-0.2-0.6c0-0.1-0.1-0.1-0.1,0
			c-0.9,0.7-1.9,1-3.1,0.8c0,0-0.1,0,0,0.1c0.4,0.4,0.8,0.8,1.2,1.2C6.5,22.5,8,21.4,7.7,20.2z M12.6,24.4c-0.8-0.1-1.6-0.4-2.3-0.8
			c0,0-0.1,0-0.1,0c0,0.1-0.1,0.3-0.2,0.4c0,0,0,0.1,0,0.1c0.8,0.2,1.7,0.4,2.5,0.4C12.6,24.6,12.7,24.5,12.6,24.4
			C12.7,24.5,12.7,24.4,12.6,24.4z M12.7,12.3c-3-0.4-5.3-2.9-5.3-6c0-3,2.3-5.6,5.2-6c0,0,0.1,0,0.1-0.1c0,0,0-0.1-0.1-0.1
			C9,0.5,4.5,2.4,4.5,6.6c0,3.2,3,5.8,6.3,5.8l1.9,0C12.7,12.4,12.7,12.3,12.7,12.3z"/>
	</g>
	<path class="st0" d="M33.3,3.2h-1.5v8.1h4.9v-1.3h-3.5V3.2z M40.3,4.9c-1.8,0-3.2,1.4-3.2,3.3c0,1.9,1.4,3.3,3.2,3.3
		c1.8,0,3.2-1.4,3.2-3.3C43.5,6.3,42.1,4.9,40.3,4.9z M40.3,10.3c-1,0-1.8-0.8-1.8-2c0-1.3,0.8-2,1.8-2c1,0,1.8,0.8,1.8,2
		C42,9.5,41.3,10.3,40.3,10.3z M46.2,3.4h-0.1L44.8,4v1.1h-1.2v1.1h1.2v3.1c0,1.4,0.8,2.2,2.1,2.2c0.4,0,0.9-0.1,1.2-0.2V10
		c-0.3,0.2-0.6,0.3-1,0.3c-0.6,0-1-0.3-1-1.1v-3h1.9V5.1h-1.9V3.4z M51.7,4.9c-1.8,0-3.2,1.4-3.2,3.3c0,1.9,1.4,3.3,3.2,3.3
		c1.8,0,3.2-1.4,3.2-3.3C54.9,6.3,53.6,4.9,51.7,4.9z M51.7,10.3c-1,0-1.8-0.8-1.8-2c0-1.3,0.8-2,1.8-2c1,0,1.8,0.8,1.8,2
		C53.5,9.5,52.7,10.3,51.7,10.3z M35.4,13.2c-2.4,0-4.2,1.8-4.2,4.2s1.8,4.2,4.2,4.2c0.8,0,1.5-0.2,2.1-0.5l0.9,1.1l1-0.9l-0.9-1
		c0.7-0.7,1.1-1.8,1.1-2.9C39.5,15,37.8,13.2,35.4,13.2z M37.5,19.3l-0.9-1.1l-1,0.8l0.9,1c-0.3,0.2-0.7,0.3-1.2,0.3
		c-1.5,0-2.6-1.1-2.6-2.9s1.1-2.9,2.6-2.9c1.5,0,2.6,1.1,2.6,2.9C38,18.2,37.8,18.8,37.5,19.3z M44.8,18.7c0,1.1-0.6,1.7-1.5,1.7
		c-0.9,0-1.5-0.6-1.5-1.7v-3.4h-1.4V19c0,1.7,1,2.6,2.3,2.6c1,0,1.7-0.6,2.1-1.5h0.1l-0.1,1.3h1.4v-6.3h-1.4V18.7z M52.1,13.7
		l-0.4-1.1l-2.5,1.2l0.3,0.8L52.1,13.7z M50.4,15.1c-1.8,0-3.2,1.3-3.2,3.3s1.3,3.3,3.3,3.3c1.4,0,2.5-0.7,2.9-1.7L52,19.5
		c-0.3,0.6-0.8,1-1.6,1c-1,0-1.7-0.6-1.8-1.7h4.9c0-0.1,0-0.3,0-0.5C53.5,16.4,52.2,15.1,50.4,15.1z M48.6,17.8
		c0.2-1,0.9-1.5,1.7-1.5c0.9,0,1.5,0.6,1.7,1.5H48.6z M58,15.1c-1,0-1.8,0.6-2.2,1.6h-0.1l0.1-1.5v-2.1h-1.4v8.3h1.4L55.7,20h0.1
		c0.3,1,1.2,1.6,2.2,1.6c1.5,0,2.6-1.3,2.6-3.3C60.7,16.4,59.5,15.1,58,15.1z M57.5,20.4c-1,0-1.7-0.8-1.7-2s0.7-2,1.7-2
		c1,0,1.7,0.8,1.7,2S58.5,20.4,57.5,20.4z M64.6,15.1c-1.8,0-3.2,1.3-3.2,3.3s1.3,3.3,3.3,3.3c1.4,0,2.5-0.7,2.9-1.7l-1.3-0.5
		c-0.3,0.6-0.8,1-1.6,1c-1,0-1.7-0.6-1.8-1.7h4.9c0-0.1,0-0.3,0-0.5C67.7,16.4,66.4,15.1,64.6,15.1z M62.8,17.8
		c0.2-1,0.9-1.5,1.7-1.5c0.9,0,1.5,0.6,1.7,1.5H62.8z M73.2,19.2c-0.2,0.8-0.8,1.2-1.6,1.2c-1,0-1.8-0.8-1.8-2s0.8-2,1.8-2
		c0.8,0,1.4,0.4,1.6,1.2l1.4-0.4c-0.4-1.2-1.5-2-2.9-2c-1.9,0-3.3,1.4-3.3,3.3c0,1.9,1.4,3.3,3.3,3.3c1.4,0,2.6-0.8,3-2.1L73.2,19.2
		z"/>
</g>
</svg>
